<svg width="266" height="152" viewBox="0 0 266 152" fill="none" xmlns="http://www.w3.org/2000/svg">
<rect width="266" height="152" fill="white"/>
<path d="M107.72 78.0234L107.163 78.5508C106.763 78.1569 106.323 77.859 105.845 77.6572C105.369 77.4521 104.906 77.3496 104.453 77.3496C103.89 77.3496 103.353 77.488 102.842 77.7646C102.334 78.0413 101.94 78.4173 101.66 78.8926C101.38 79.3646 101.24 79.8643 101.24 80.3916C101.24 80.932 101.385 81.4463 101.675 81.9346C101.965 82.4196 102.365 82.8021 102.876 83.082C103.387 83.3587 103.947 83.4971 104.556 83.4971C105.295 83.4971 105.92 83.2887 106.431 82.8721C106.942 82.4554 107.244 81.915 107.339 81.251H105.049V80.5576H108.145C108.138 81.6676 107.808 82.5498 107.153 83.2041C106.502 83.8551 105.63 84.1807 104.536 84.1807C103.208 84.1807 102.157 83.7282 101.382 82.8232C100.786 82.1266 100.488 81.321 100.488 80.4062C100.488 79.7259 100.659 79.0928 101.001 78.5068C101.343 77.9209 101.812 77.4635 102.407 77.1348C103.003 76.8027 103.677 76.6367 104.429 76.6367C105.037 76.6367 105.61 76.7474 106.147 76.9688C106.685 77.1868 107.209 77.5384 107.72 78.0234ZM109.639 76.5C109.795 76.5 109.928 76.5553 110.039 76.666C110.15 76.7767 110.205 76.9102 110.205 77.0664C110.205 77.2194 110.15 77.3512 110.039 77.4619C109.928 77.5726 109.795 77.6279 109.639 77.6279C109.486 77.6279 109.354 77.5726 109.243 77.4619C109.132 77.3512 109.077 77.2194 109.077 77.0664C109.077 76.9102 109.132 76.7767 109.243 76.666C109.354 76.5553 109.486 76.5 109.639 76.5ZM109.297 78.6875H109.985V84H109.297V78.6875ZM111.143 78.6875H111.841V79.4639C112.049 79.1579 112.269 78.93 112.5 78.7803C112.731 78.6273 112.972 78.5508 113.223 78.5508C113.411 78.5508 113.613 78.611 113.828 78.7314L113.472 79.3076C113.328 79.2458 113.208 79.2148 113.11 79.2148C112.882 79.2148 112.663 79.3092 112.451 79.498C112.24 79.6836 112.078 79.9733 111.968 80.3672C111.883 80.6699 111.841 81.2819 111.841 82.2031V84H111.143V78.6875ZM114.648 76.5C114.805 76.5 114.938 76.5553 115.049 76.666C115.16 76.7767 115.215 76.9102 115.215 77.0664C115.215 77.2194 115.16 77.3512 115.049 77.4619C114.938 77.5726 114.805 77.6279 114.648 77.6279C114.495 77.6279 114.364 77.5726 114.253 77.4619C114.142 77.3512 114.087 77.2194 114.087 77.0664C114.087 76.9102 114.142 76.7767 114.253 76.666C114.364 76.5553 114.495 76.5 114.648 76.5ZM114.307 78.6875H114.995V84H114.307V78.6875ZM119.082 79.2686L118.643 79.7227C118.278 79.3678 117.922 79.1904 117.573 79.1904C117.352 79.1904 117.161 79.2637 117.002 79.4102C116.846 79.5566 116.768 79.7275 116.768 79.9229C116.768 80.0954 116.833 80.2598 116.963 80.416C117.093 80.5755 117.367 80.7627 117.783 80.9775C118.291 81.2412 118.636 81.4951 118.818 81.7393C118.997 81.9867 119.087 82.265 119.087 82.5742C119.087 83.0104 118.934 83.3799 118.628 83.6826C118.322 83.9854 117.939 84.1367 117.48 84.1367C117.174 84.1367 116.882 84.07 116.602 83.9365C116.325 83.8031 116.095 83.6191 115.913 83.3848L116.343 82.8965C116.691 83.2904 117.061 83.4873 117.451 83.4873C117.725 83.4873 117.957 83.3994 118.149 83.2236C118.341 83.0479 118.438 82.8411 118.438 82.6035C118.438 82.4082 118.374 82.234 118.247 82.0811C118.12 81.9313 117.834 81.7425 117.388 81.5146C116.909 81.2673 116.584 81.0231 116.411 80.7822C116.239 80.5413 116.152 80.2663 116.152 79.957C116.152 79.5534 116.289 79.2181 116.562 78.9512C116.839 78.6842 117.188 78.5508 117.607 78.5508C118.096 78.5508 118.587 78.79 119.082 79.2686ZM120.298 76.6367H120.981V79.6396C121.258 79.2751 121.562 79.0033 121.895 78.8242C122.227 78.6419 122.586 78.5508 122.974 78.5508C123.371 78.5508 123.722 78.6517 124.028 78.8535C124.338 79.0553 124.565 79.3271 124.712 79.6689C124.858 80.0075 124.932 80.5397 124.932 81.2656V84H124.248V81.4658C124.248 80.8538 124.224 80.4453 124.175 80.2402C124.09 79.8887 123.936 79.625 123.711 79.4492C123.49 79.2702 123.198 79.1807 122.837 79.1807C122.424 79.1807 122.052 79.3174 121.724 79.5908C121.398 79.8643 121.183 80.2028 121.079 80.6064C121.014 80.8669 120.981 81.3486 120.981 82.0518V84H120.298V76.6367ZM132.222 76.8174L135.571 84H134.8L133.672 81.6367H130.576L129.453 84H128.652L132.046 76.8174H132.222ZM132.134 78.3408L130.898 80.9434H133.354L132.134 78.3408ZM136.577 76.6367H137.261V79.6396C137.537 79.2751 137.842 79.0033 138.174 78.8242C138.506 78.6419 138.866 78.5508 139.253 78.5508C139.65 78.5508 140.002 78.6517 140.308 78.8535C140.617 79.0553 140.845 79.3271 140.991 79.6689C141.138 80.0075 141.211 80.5397 141.211 81.2656V84H140.527V81.4658C140.527 80.8538 140.503 80.4453 140.454 80.2402C140.369 79.8887 140.215 79.625 139.99 79.4492C139.769 79.2702 139.478 79.1807 139.116 79.1807C138.703 79.1807 138.332 79.3174 138.003 79.5908C137.677 79.8643 137.463 80.2028 137.358 80.6064C137.293 80.8669 137.261 81.3486 137.261 82.0518V84H136.577V76.6367ZM142.92 76.5C143.076 76.5 143.21 76.5553 143.32 76.666C143.431 76.7767 143.486 76.9102 143.486 77.0664C143.486 77.2194 143.431 77.3512 143.32 77.4619C143.21 77.5726 143.076 77.6279 142.92 77.6279C142.767 77.6279 142.635 77.5726 142.524 77.4619C142.414 77.3512 142.358 77.2194 142.358 77.0664C142.358 76.9102 142.414 76.7767 142.524 76.666C142.635 76.5553 142.767 76.5 142.92 76.5ZM142.578 78.6875H143.267V84H142.578V78.6875ZM144.424 78.6875H145.122V79.4639C145.33 79.1579 145.55 78.93 145.781 78.7803C146.012 78.6273 146.253 78.5508 146.504 78.5508C146.693 78.5508 146.895 78.611 147.109 78.7314L146.753 79.3076C146.61 79.2458 146.489 79.2148 146.392 79.2148C146.164 79.2148 145.944 79.3092 145.732 79.498C145.521 79.6836 145.36 79.9733 145.249 80.3672C145.164 80.6699 145.122 81.2819 145.122 82.2031V84H144.424V78.6875ZM146.973 78.6875H147.676L149.302 82.5449L151.006 78.6875H151.128L152.827 82.5449L154.482 78.6875H155.195L152.891 84H152.759L151.069 80.1963L149.365 84H149.238L146.973 78.6875ZM161.294 78.6875V84H160.62V83.0869C160.334 83.4352 160.011 83.6973 159.653 83.873C159.299 84.0488 158.91 84.1367 158.486 84.1367C157.734 84.1367 157.091 83.8649 156.558 83.3213C156.027 82.7744 155.762 82.1104 155.762 81.3291C155.762 80.5641 156.03 79.9098 156.567 79.3662C157.104 78.8226 157.751 78.5508 158.506 78.5508C158.942 78.5508 159.336 78.6436 159.688 78.8291C160.042 79.0146 160.353 79.293 160.62 79.6641V78.6875H161.294ZM158.56 79.21C158.179 79.21 157.827 79.3044 157.505 79.4932C157.183 79.6787 156.925 79.9408 156.733 80.2793C156.545 80.6178 156.45 80.9759 156.45 81.3535C156.45 81.7279 156.546 82.0859 156.738 82.4277C156.93 82.7695 157.188 83.0365 157.51 83.2285C157.835 83.4173 158.184 83.5117 158.555 83.5117C158.929 83.5117 159.284 83.4173 159.619 83.2285C159.954 83.0397 160.212 82.7842 160.391 82.4619C160.573 82.1396 160.664 81.7767 160.664 81.373C160.664 80.7578 160.461 80.2435 160.054 79.8301C159.65 79.4167 159.152 79.21 158.56 79.21ZM162.578 78.6875H163.276V79.4639C163.485 79.1579 163.704 78.93 163.936 78.7803C164.167 78.6273 164.408 78.5508 164.658 78.5508C164.847 78.5508 165.049 78.611 165.264 78.7314L164.907 79.3076C164.764 79.2458 164.644 79.2148 164.546 79.2148C164.318 79.2148 164.098 79.3092 163.887 79.498C163.675 79.6836 163.514 79.9733 163.403 80.3672C163.319 80.6699 163.276 81.2819 163.276 82.2031V84H162.578V78.6875ZM75.4648 91.3203L75.0117 91.668C74.7617 91.3424 74.4609 91.0964 74.1094 90.9297C73.7604 90.7604 73.3763 90.6758 72.957 90.6758C72.4987 90.6758 72.0742 90.7865 71.6836 91.0078C71.293 91.2266 70.9896 91.5221 70.7734 91.8945C70.5599 92.2643 70.4531 92.681 70.4531 93.1445C70.4531 93.8451 70.6927 94.4297 71.1719 94.8984C71.6536 95.3672 72.2604 95.6016 72.9922 95.6016C73.7969 95.6016 74.4701 95.2865 75.0117 94.6562L75.4648 95C75.1784 95.3646 74.8203 95.6471 74.3906 95.8477C73.9635 96.0456 73.4857 96.1445 72.957 96.1445C71.9518 96.1445 71.1589 95.8099 70.5781 95.1406C70.0911 94.5755 69.8477 93.8932 69.8477 93.0938C69.8477 92.2526 70.1419 91.5456 70.7305 90.9727C71.3216 90.3971 72.0612 90.1094 72.9492 90.1094C73.4857 90.1094 73.9701 90.2161 74.4023 90.4297C74.8346 90.6406 75.1888 90.9375 75.4648 91.3203ZM78.543 91.6406C79.1966 91.6406 79.7383 91.8776 80.168 92.3516C80.5586 92.7839 80.7539 93.2956 80.7539 93.8867C80.7539 94.4805 80.5469 95 80.1328 95.4453C79.7214 95.888 79.1914 96.1094 78.543 96.1094C77.8919 96.1094 77.3594 95.888 76.9453 95.4453C76.5339 95 76.3281 94.4805 76.3281 93.8867C76.3281 93.2982 76.5234 92.7878 76.9141 92.3555C77.3438 91.8789 77.8867 91.6406 78.543 91.6406ZM78.543 92.1758C78.0898 92.1758 77.7005 92.3438 77.375 92.6797C77.0495 93.0156 76.8867 93.4219 76.8867 93.8984C76.8867 94.2057 76.9609 94.4922 77.1094 94.7578C77.2578 95.0234 77.4583 95.2292 77.7109 95.375C77.9635 95.5182 78.2409 95.5898 78.543 95.5898C78.8451 95.5898 79.1224 95.5182 79.375 95.375C79.6276 95.2292 79.8281 95.0234 79.9766 94.7578C80.125 94.4922 80.1992 94.2057 80.1992 93.8984C80.1992 93.4219 80.0352 93.0156 79.707 92.6797C79.3815 92.3438 78.9935 92.1758 78.543 92.1758ZM81.418 93.6016H83.5664V94.0781H81.418V93.6016ZM84.5195 90.2539H87.3984V90.8203H85.0898V92.6172H87.3984V93.1836H85.0898V96H84.5195V90.2539ZM90.3242 91.6406C90.9779 91.6406 91.5195 91.8776 91.9492 92.3516C92.3398 92.7839 92.5352 93.2956 92.5352 93.8867C92.5352 94.4805 92.3281 95 91.9141 95.4453C91.5026 95.888 90.9727 96.1094 90.3242 96.1094C89.6732 96.1094 89.1406 95.888 88.7266 95.4453C88.3151 95 88.1094 94.4805 88.1094 93.8867C88.1094 93.2982 88.3047 92.7878 88.6953 92.3555C89.125 91.8789 89.668 91.6406 90.3242 91.6406ZM90.3242 92.1758C89.8711 92.1758 89.4818 92.3438 89.1562 92.6797C88.8307 93.0156 88.668 93.4219 88.668 93.8984C88.668 94.2057 88.7422 94.4922 88.8906 94.7578C89.0391 95.0234 89.2396 95.2292 89.4922 95.375C89.7448 95.5182 90.0221 95.5898 90.3242 95.5898C90.6263 95.5898 90.9036 95.5182 91.1562 95.375C91.4089 95.2292 91.6094 95.0234 91.7578 94.7578C91.9062 94.4922 91.9805 94.2057 91.9805 93.8984C91.9805 93.4219 91.8164 93.0156 91.4883 92.6797C91.1628 92.3438 90.7747 92.1758 90.3242 92.1758ZM93.4844 91.75H94.0352V93.7344C94.0352 94.2188 94.0612 94.5521 94.1133 94.7344C94.1914 94.9948 94.3398 95.2005 94.5586 95.3516C94.7799 95.5026 95.043 95.5781 95.3477 95.5781C95.6523 95.5781 95.9102 95.5052 96.1211 95.3594C96.3346 95.2109 96.4818 95.0169 96.5625 94.7773C96.6172 94.6133 96.6445 94.2656 96.6445 93.7344V91.75H97.2031V93.8359C97.2031 94.4219 97.1341 94.8633 96.9961 95.1602C96.8607 95.457 96.6549 95.6901 96.3789 95.8594C96.1055 96.026 95.7617 96.1094 95.3477 96.1094C94.9336 96.1094 94.5872 96.026 94.3086 95.8594C94.0326 95.6901 93.8255 95.4557 93.6875 95.1562C93.5521 94.8542 93.4844 94.401 93.4844 93.7969V91.75ZM98.4219 91.75H98.9688V92.5117C99.1875 92.2201 99.4297 92.0026 99.6953 91.8594C99.9609 91.7135 100.25 91.6406 100.562 91.6406C100.88 91.6406 101.161 91.7214 101.406 91.8828C101.654 92.0443 101.836 92.2617 101.953 92.5352C102.07 92.8086 102.129 93.2344 102.129 93.8125V96H101.586V93.9727C101.586 93.4831 101.565 93.1562 101.523 92.9922C101.458 92.7109 101.336 92.5 101.156 92.3594C100.977 92.2161 100.742 92.1445 100.453 92.1445C100.122 92.1445 99.8255 92.2539 99.5625 92.4727C99.3021 92.6914 99.1302 92.9622 99.0469 93.2852C98.9948 93.4961 98.9688 93.8815 98.9688 94.4414V96H98.4219V91.75ZM107.547 90.1094V96H107.008V95.2695C106.779 95.5482 106.521 95.7578 106.234 95.8984C105.951 96.0391 105.639 96.1094 105.301 96.1094C104.699 96.1094 104.185 95.8919 103.758 95.457C103.333 95.0195 103.121 94.4883 103.121 93.8633C103.121 93.2513 103.336 92.7279 103.766 92.293C104.195 91.8581 104.712 91.6406 105.316 91.6406C105.665 91.6406 105.98 91.7148 106.262 91.8633C106.546 92.0117 106.794 92.2344 107.008 92.5312V90.1094H107.547ZM105.359 92.168C105.055 92.168 104.773 92.2435 104.516 92.3945C104.258 92.543 104.052 92.7526 103.898 93.0234C103.747 93.2943 103.672 93.5807 103.672 93.8828C103.672 94.1823 103.749 94.4688 103.902 94.7422C104.056 95.0156 104.262 95.2292 104.52 95.3828C104.78 95.5339 105.059 95.6094 105.355 95.6094C105.655 95.6094 105.939 95.5339 106.207 95.3828C106.475 95.2318 106.681 95.0273 106.824 94.7695C106.97 94.5117 107.043 94.2214 107.043 93.8984C107.043 93.4062 106.88 92.9948 106.555 92.6641C106.232 92.3333 105.833 92.168 105.359 92.168ZM112.367 94.5898L112.828 94.832C112.677 95.1289 112.503 95.3685 112.305 95.5508C112.107 95.7331 111.884 95.8724 111.637 95.9688C111.389 96.0625 111.109 96.1094 110.797 96.1094C110.104 96.1094 109.562 95.8828 109.172 95.4297C108.781 94.974 108.586 94.4596 108.586 93.8867C108.586 93.3477 108.751 92.8672 109.082 92.4453C109.501 91.9089 110.062 91.6406 110.766 91.6406C111.49 91.6406 112.068 91.9154 112.5 92.4648C112.807 92.8529 112.964 93.3372 112.969 93.918H109.148C109.159 94.4128 109.316 94.819 109.621 95.1367C109.926 95.4518 110.302 95.6094 110.75 95.6094C110.966 95.6094 111.176 95.5716 111.379 95.4961C111.585 95.4206 111.759 95.3203 111.902 95.1953C112.046 95.0703 112.201 94.8685 112.367 94.5898ZM112.367 93.4453C112.294 93.1536 112.188 92.9206 112.047 92.7461C111.909 92.5716 111.725 92.431 111.496 92.3242C111.267 92.2174 111.026 92.1641 110.773 92.1641C110.357 92.1641 109.999 92.2982 109.699 92.5664C109.48 92.7617 109.315 93.0547 109.203 93.4453H112.367ZM113.785 91.75H114.344V92.3711C114.51 92.1263 114.686 91.944 114.871 91.8242C115.056 91.7018 115.249 91.6406 115.449 91.6406C115.6 91.6406 115.762 91.6888 115.934 91.7852L115.648 92.2461C115.534 92.1966 115.438 92.1719 115.359 92.1719C115.177 92.1719 115.001 92.2474 114.832 92.3984C114.663 92.5469 114.534 92.7786 114.445 93.0938C114.378 93.3359 114.344 93.8255 114.344 94.5625V96H113.785V91.75ZM123.055 93.875L123.445 94.2891C123.195 94.5104 122.97 94.7018 122.77 94.8633C122.902 95.0039 123.094 95.2005 123.344 95.4531C123.542 95.651 123.712 95.8333 123.855 96H123.055L122.316 95.2305C121.822 95.6055 121.424 95.8516 121.125 95.9688C120.826 96.0859 120.509 96.1445 120.176 96.1445C119.733 96.1445 119.378 96.0182 119.109 95.7656C118.841 95.5104 118.707 95.1927 118.707 94.8125C118.707 94.526 118.797 94.2396 118.977 93.9531C119.159 93.6641 119.529 93.2995 120.086 92.8594C119.771 92.4792 119.568 92.1992 119.477 92.0195C119.388 91.8372 119.344 91.6641 119.344 91.5C119.344 91.2135 119.454 90.9766 119.676 90.7891C119.931 90.5703 120.249 90.4609 120.629 90.4609C120.868 90.4609 121.087 90.5091 121.285 90.6055C121.483 90.7018 121.634 90.832 121.738 90.9961C121.842 91.1576 121.895 91.3294 121.895 91.5117C121.895 91.7044 121.827 91.9102 121.691 92.1289C121.556 92.3451 121.289 92.6224 120.891 92.9609L121.762 93.875L122.359 94.4727C122.646 94.2331 122.878 94.0339 123.055 93.875ZM120.535 92.5312C120.814 92.3151 121.023 92.1029 121.164 91.8945C121.263 91.7461 121.312 91.6146 121.312 91.5C121.312 91.3672 121.247 91.2526 121.117 91.1562C120.99 91.0599 120.819 91.0117 120.605 91.0117C120.402 91.0117 120.237 91.0612 120.109 91.1602C119.982 91.2591 119.918 91.3763 119.918 91.5117C119.918 91.6159 119.944 91.7135 119.996 91.8047C120.124 92.026 120.303 92.2682 120.535 92.5312ZM120.465 93.293C119.978 93.6602 119.659 93.9531 119.508 94.1719C119.357 94.388 119.281 94.5885 119.281 94.7734C119.281 94.9922 119.374 95.1862 119.559 95.3555C119.743 95.5221 119.97 95.6055 120.238 95.6055C120.441 95.6055 120.641 95.5638 120.836 95.4805C121.143 95.3477 121.507 95.1315 121.926 94.832L120.988 93.8711C120.832 93.707 120.658 93.5143 120.465 93.293ZM126.98 96V90.2539H128.172C129.031 90.2539 129.655 90.3229 130.043 90.4609C130.6 90.6562 131.035 90.9948 131.348 91.4766C131.663 91.9583 131.82 92.5326 131.82 93.1992C131.82 93.7747 131.695 94.2812 131.445 94.7188C131.198 95.1562 130.875 95.4792 130.477 95.6875C130.081 95.8958 129.525 96 128.809 96H126.98ZM127.531 95.457H128.195C128.99 95.457 129.54 95.4076 129.848 95.3086C130.28 95.168 130.62 94.9154 130.867 94.5508C131.115 94.1836 131.238 93.7357 131.238 93.207C131.238 92.6523 131.104 92.1784 130.836 91.7852C130.568 91.3919 130.194 91.1224 129.715 90.9766C129.355 90.8672 128.763 90.8125 127.938 90.8125H127.531V95.457ZM133.035 90C133.16 90 133.267 90.0443 133.355 90.1328C133.444 90.2214 133.488 90.3281 133.488 90.4531C133.488 90.5755 133.444 90.681 133.355 90.7695C133.267 90.8581 133.16 90.9023 133.035 90.9023C132.913 90.9023 132.807 90.8581 132.719 90.7695C132.63 90.681 132.586 90.5755 132.586 90.4531C132.586 90.3281 132.63 90.2214 132.719 90.1328C132.807 90.0443 132.913 90 133.035 90ZM132.762 91.75H133.312V96H132.762V91.75ZM134.238 91.75H134.797V92.3711C134.964 92.1263 135.139 91.944 135.324 91.8242C135.509 91.7018 135.702 91.6406 135.902 91.6406C136.053 91.6406 136.215 91.6888 136.387 91.7852L136.102 92.2461C135.987 92.1966 135.891 92.1719 135.812 92.1719C135.63 92.1719 135.454 92.2474 135.285 92.3984C135.116 92.5469 134.987 92.7786 134.898 93.0938C134.831 93.3359 134.797 93.8255 134.797 94.5625V96H134.238V91.75ZM140.43 94.5898L140.891 94.832C140.74 95.1289 140.565 95.3685 140.367 95.5508C140.169 95.7331 139.947 95.8724 139.699 95.9688C139.452 96.0625 139.172 96.1094 138.859 96.1094C138.167 96.1094 137.625 95.8828 137.234 95.4297C136.844 94.974 136.648 94.4596 136.648 93.8867C136.648 93.3477 136.814 92.8672 137.145 92.4453C137.564 91.9089 138.125 91.6406 138.828 91.6406C139.552 91.6406 140.13 91.9154 140.562 92.4648C140.87 92.8529 141.026 93.3372 141.031 93.918H137.211C137.221 94.4128 137.379 94.819 137.684 95.1367C137.988 95.4518 138.365 95.6094 138.812 95.6094C139.029 95.6094 139.238 95.5716 139.441 95.4961C139.647 95.4206 139.822 95.3203 139.965 95.1953C140.108 95.0703 140.263 94.8685 140.43 94.5898ZM140.43 93.4453C140.357 93.1536 140.25 92.9206 140.109 92.7461C139.971 92.5716 139.788 92.431 139.559 92.3242C139.329 92.2174 139.089 92.1641 138.836 92.1641C138.419 92.1641 138.061 92.2982 137.762 92.5664C137.543 92.7617 137.378 93.0547 137.266 93.4453H140.43ZM146.18 92.6328L145.746 92.9023C145.371 92.4049 144.859 92.1562 144.211 92.1562C143.693 92.1562 143.262 92.3229 142.918 92.6562C142.577 92.9896 142.406 93.3945 142.406 93.8711C142.406 94.181 142.484 94.4727 142.641 94.7461C142.799 95.0195 143.016 95.2318 143.289 95.3828C143.565 95.5339 143.874 95.6094 144.215 95.6094C144.84 95.6094 145.35 95.3607 145.746 94.8633L146.18 95.1484C145.977 95.4531 145.703 95.6901 145.359 95.8594C145.018 96.026 144.629 96.1094 144.191 96.1094C143.52 96.1094 142.962 95.8958 142.52 95.4688C142.077 95.0417 141.855 94.5221 141.855 93.9102C141.855 93.4987 141.958 93.1172 142.164 92.7656C142.372 92.4115 142.658 92.1354 143.02 91.9375C143.382 91.7396 143.786 91.6406 144.234 91.6406C144.516 91.6406 144.786 91.6836 145.047 91.7695C145.31 91.8555 145.533 91.9674 145.715 92.1055C145.897 92.2435 146.052 92.4193 146.18 92.6328ZM147.711 90.1719H148.262V91.75H149.129V92.2188H148.262V96H147.711V92.2188H146.965V91.75H147.711V90.1719ZM151.957 91.6406C152.611 91.6406 153.152 91.8776 153.582 92.3516C153.973 92.7839 154.168 93.2956 154.168 93.8867C154.168 94.4805 153.961 95 153.547 95.4453C153.135 95.888 152.605 96.1094 151.957 96.1094C151.306 96.1094 150.773 95.888 150.359 95.4453C149.948 95 149.742 94.4805 149.742 93.8867C149.742 93.2982 149.938 92.7878 150.328 92.3555C150.758 91.8789 151.301 91.6406 151.957 91.6406ZM151.957 92.1758C151.504 92.1758 151.115 92.3438 150.789 92.6797C150.464 93.0156 150.301 93.4219 150.301 93.8984C150.301 94.2057 150.375 94.4922 150.523 94.7578C150.672 95.0234 150.872 95.2292 151.125 95.375C151.378 95.5182 151.655 95.5898 151.957 95.5898C152.259 95.5898 152.536 95.5182 152.789 95.375C153.042 95.2292 153.242 95.0234 153.391 94.7578C153.539 94.4922 153.613 94.2057 153.613 93.8984C153.613 93.4219 153.449 93.0156 153.121 92.6797C152.796 92.3438 152.408 92.1758 151.957 92.1758ZM154.98 91.75H155.539V92.3711C155.706 92.1263 155.882 91.944 156.066 91.8242C156.251 91.7018 156.444 91.6406 156.645 91.6406C156.796 91.6406 156.957 91.6888 157.129 91.7852L156.844 92.2461C156.729 92.1966 156.633 92.1719 156.555 92.1719C156.372 92.1719 156.197 92.2474 156.027 92.3984C155.858 92.5469 155.729 92.7786 155.641 93.0938C155.573 93.3359 155.539 93.8255 155.539 94.5625V96H154.98V91.75ZM161.039 90H161.672C161.417 90.5234 161.212 91.1341 161.059 91.832C160.905 92.5299 160.828 93.25 160.828 93.9922C160.828 94.6797 160.885 95.3424 161 95.9805C161.117 96.6185 161.277 97.1797 161.48 97.6641H160.879C160.686 97.2005 160.533 96.6549 160.418 96.0273C160.303 95.3997 160.246 94.7461 160.246 94.0664C160.246 93.3346 160.314 92.6224 160.449 91.9297C160.585 91.2344 160.781 90.5911 161.039 90ZM162.871 90.2539H164.004C164.46 90.2539 164.81 90.3086 165.055 90.418C165.299 90.5247 165.492 90.6901 165.633 90.9141C165.776 91.138 165.848 91.3867 165.848 91.6602C165.848 91.9154 165.785 92.1484 165.66 92.3594C165.535 92.5677 165.352 92.737 165.109 92.8672C165.409 92.9688 165.639 93.0885 165.801 93.2266C165.962 93.362 166.087 93.5273 166.176 93.7227C166.267 93.9154 166.312 94.125 166.312 94.3516C166.312 94.8125 166.143 95.2031 165.805 95.5234C165.469 95.8411 165.017 96 164.449 96H162.871V90.2539ZM163.434 90.8164V92.6562H163.762C164.16 92.6562 164.453 92.6198 164.641 92.5469C164.828 92.4714 164.977 92.3542 165.086 92.1953C165.195 92.0339 165.25 91.8555 165.25 91.6602C165.25 91.3971 165.158 91.1914 164.973 91.043C164.79 90.8919 164.499 90.8164 164.098 90.8164H163.434ZM163.434 93.2344V95.4375H164.145C164.564 95.4375 164.871 95.3971 165.066 95.3164C165.262 95.2331 165.418 95.1042 165.535 94.9297C165.655 94.7552 165.715 94.5664 165.715 94.3633C165.715 94.1081 165.632 93.8854 165.465 93.6953C165.298 93.5052 165.069 93.375 164.777 93.3047C164.582 93.2578 164.242 93.2344 163.758 93.2344H163.434ZM167.289 91.75H167.84V93.7344C167.84 94.2188 167.866 94.5521 167.918 94.7344C167.996 94.9948 168.145 95.2005 168.363 95.3516C168.585 95.5026 168.848 95.5781 169.152 95.5781C169.457 95.5781 169.715 95.5052 169.926 95.3594C170.139 95.2109 170.286 95.0169 170.367 94.7773C170.422 94.6133 170.449 94.2656 170.449 93.7344V91.75H171.008V93.8359C171.008 94.4219 170.939 94.8633 170.801 95.1602C170.665 95.457 170.46 95.6901 170.184 95.8594C169.91 96.026 169.566 96.1094 169.152 96.1094C168.738 96.1094 168.392 96.026 168.113 95.8594C167.837 95.6901 167.63 95.4557 167.492 95.1562C167.357 94.8542 167.289 94.401 167.289 93.7969V91.75ZM174.363 92.2148L174.012 92.5781C173.72 92.2943 173.435 92.1523 173.156 92.1523C172.979 92.1523 172.827 92.2109 172.699 92.3281C172.574 92.4453 172.512 92.582 172.512 92.7383C172.512 92.8763 172.564 93.0078 172.668 93.1328C172.772 93.2604 172.991 93.4102 173.324 93.582C173.73 93.793 174.007 93.9961 174.152 94.1914C174.296 94.3893 174.367 94.612 174.367 94.8594C174.367 95.2083 174.245 95.5039 174 95.7461C173.755 95.9883 173.449 96.1094 173.082 96.1094C172.837 96.1094 172.603 96.056 172.379 95.9492C172.158 95.8424 171.974 95.6953 171.828 95.5078L172.172 95.1172C172.451 95.4323 172.746 95.5898 173.059 95.5898C173.277 95.5898 173.464 95.5195 173.617 95.3789C173.771 95.2383 173.848 95.0729 173.848 94.8828C173.848 94.7266 173.797 94.5872 173.695 94.4648C173.594 94.3451 173.365 94.194 173.008 94.0117C172.625 93.8138 172.365 93.6185 172.227 93.4258C172.089 93.2331 172.02 93.013 172.02 92.7656C172.02 92.4427 172.129 92.1745 172.348 91.9609C172.569 91.7474 172.848 91.6406 173.184 91.6406C173.574 91.6406 173.967 91.832 174.363 92.2148ZM175.527 90C175.652 90 175.759 90.0443 175.848 90.1328C175.936 90.2214 175.98 90.3281 175.98 90.4531C175.98 90.5755 175.936 90.681 175.848 90.7695C175.759 90.8581 175.652 90.9023 175.527 90.9023C175.405 90.9023 175.299 90.8581 175.211 90.7695C175.122 90.681 175.078 90.5755 175.078 90.4531C175.078 90.3281 175.122 90.2214 175.211 90.1328C175.299 90.0443 175.405 90 175.527 90ZM175.254 91.75H175.805V96H175.254V91.75ZM176.938 91.75H177.484V92.5117C177.703 92.2201 177.945 92.0026 178.211 91.8594C178.477 91.7135 178.766 91.6406 179.078 91.6406C179.396 91.6406 179.677 91.7214 179.922 91.8828C180.169 92.0443 180.352 92.2617 180.469 92.5352C180.586 92.8086 180.645 93.2344 180.645 93.8125V96H180.102V93.9727C180.102 93.4831 180.081 93.1562 180.039 92.9922C179.974 92.7109 179.852 92.5 179.672 92.3594C179.492 92.2161 179.258 92.1445 178.969 92.1445C178.638 92.1445 178.341 92.2539 178.078 92.4727C177.818 92.6914 177.646 92.9622 177.562 93.2852C177.51 93.4961 177.484 93.8815 177.484 94.4414V96H176.938V91.75ZM185.398 94.5898L185.859 94.832C185.708 95.1289 185.534 95.3685 185.336 95.5508C185.138 95.7331 184.915 95.8724 184.668 95.9688C184.421 96.0625 184.141 96.1094 183.828 96.1094C183.135 96.1094 182.594 95.8828 182.203 95.4297C181.812 94.974 181.617 94.4596 181.617 93.8867C181.617 93.3477 181.783 92.8672 182.113 92.4453C182.533 91.9089 183.094 91.6406 183.797 91.6406C184.521 91.6406 185.099 91.9154 185.531 92.4648C185.839 92.8529 185.995 93.3372 186 93.918H182.18C182.19 94.4128 182.348 94.819 182.652 95.1367C182.957 95.4518 183.333 95.6094 183.781 95.6094C183.997 95.6094 184.207 95.5716 184.41 95.4961C184.616 95.4206 184.79 95.3203 184.934 95.1953C185.077 95.0703 185.232 94.8685 185.398 94.5898ZM185.398 93.4453C185.326 93.1536 185.219 92.9206 185.078 92.7461C184.94 92.5716 184.757 92.431 184.527 92.3242C184.298 92.2174 184.057 92.1641 183.805 92.1641C183.388 92.1641 183.03 92.2982 182.73 92.5664C182.512 92.7617 182.346 93.0547 182.234 93.4453H185.398ZM189.16 92.2148L188.809 92.5781C188.517 92.2943 188.232 92.1523 187.953 92.1523C187.776 92.1523 187.624 92.2109 187.496 92.3281C187.371 92.4453 187.309 92.582 187.309 92.7383C187.309 92.8763 187.361 93.0078 187.465 93.1328C187.569 93.2604 187.788 93.4102 188.121 93.582C188.527 93.793 188.803 93.9961 188.949 94.1914C189.092 94.3893 189.164 94.612 189.164 94.8594C189.164 95.2083 189.042 95.5039 188.797 95.7461C188.552 95.9883 188.246 96.1094 187.879 96.1094C187.634 96.1094 187.4 96.056 187.176 95.9492C186.954 95.8424 186.771 95.6953 186.625 95.5078L186.969 95.1172C187.247 95.4323 187.543 95.5898 187.855 95.5898C188.074 95.5898 188.26 95.5195 188.414 95.3789C188.568 95.2383 188.645 95.0729 188.645 94.8828C188.645 94.7266 188.594 94.5872 188.492 94.4648C188.391 94.3451 188.161 94.194 187.805 94.0117C187.422 93.8138 187.161 93.6185 187.023 93.4258C186.885 93.2331 186.816 93.013 186.816 92.7656C186.816 92.4427 186.926 92.1745 187.145 91.9609C187.366 91.7474 187.645 91.6406 187.98 91.6406C188.371 91.6406 188.764 91.832 189.16 92.2148ZM192.27 92.2148L191.918 92.5781C191.626 92.2943 191.341 92.1523 191.062 92.1523C190.885 92.1523 190.733 92.2109 190.605 92.3281C190.48 92.4453 190.418 92.582 190.418 92.7383C190.418 92.8763 190.47 93.0078 190.574 93.1328C190.678 93.2604 190.897 93.4102 191.23 93.582C191.637 93.793 191.913 93.9961 192.059 94.1914C192.202 94.3893 192.273 94.612 192.273 94.8594C192.273 95.2083 192.151 95.5039 191.906 95.7461C191.661 95.9883 191.355 96.1094 190.988 96.1094C190.743 96.1094 190.509 96.056 190.285 95.9492C190.064 95.8424 189.88 95.6953 189.734 95.5078L190.078 95.1172C190.357 95.4323 190.652 95.5898 190.965 95.5898C191.184 95.5898 191.37 95.5195 191.523 95.3789C191.677 95.2383 191.754 95.0729 191.754 94.8828C191.754 94.7266 191.703 94.5872 191.602 94.4648C191.5 94.3451 191.271 94.194 190.914 94.0117C190.531 93.8138 190.271 93.6185 190.133 93.4258C189.995 93.2331 189.926 93.013 189.926 92.7656C189.926 92.4427 190.035 92.1745 190.254 91.9609C190.475 91.7474 190.754 91.6406 191.09 91.6406C191.48 91.6406 191.874 91.832 192.27 92.2148ZM193.75 97.6641H193.117C193.375 97.1406 193.579 96.5299 193.73 95.832C193.884 95.1341 193.961 94.4141 193.961 93.6719C193.961 92.9844 193.902 92.3216 193.785 91.6836C193.671 91.0456 193.512 90.4844 193.309 90H193.91C194.105 90.4635 194.259 91.0104 194.371 91.6406C194.486 92.2682 194.543 92.9219 194.543 93.6016C194.543 94.3307 194.475 95.043 194.34 95.7383C194.204 96.431 194.008 97.0729 193.75 97.6641Z" fill="#201E1F"/>
<path d="M75.4492 126.645V125.373H75.8506V126.645H77.1338V127.046H75.8506V128.317H75.4492V127.046H74.1689V126.645H75.4492ZM78.6221 129.108L78.2676 128.88L79.4307 127.116C79.2744 127.167 79.1279 127.192 78.9912 127.192C78.6494 127.192 78.3594 127.069 78.1211 126.823C77.8828 126.575 77.7637 126.271 77.7637 125.909C77.7637 125.661 77.8213 125.438 77.9365 125.238C78.0518 125.039 78.2148 124.88 78.4258 124.761C78.6387 124.642 78.8662 124.582 79.1084 124.582C79.3467 124.582 79.5664 124.64 79.7676 124.755C79.9707 124.87 80.1299 125.031 80.2451 125.238C80.3604 125.445 80.418 125.666 80.418 125.9C80.418 126.078 80.3818 126.265 80.3096 126.46C80.2393 126.653 80.1123 126.887 79.9287 127.16L78.6221 129.108ZM79.0908 126.814C79.3428 126.814 79.5566 126.727 79.7324 126.551C79.9102 126.373 79.999 126.159 79.999 125.909C79.999 125.659 79.9102 125.446 79.7324 125.271C79.5566 125.093 79.3428 125.004 79.0908 125.004C78.8408 125.004 78.627 125.093 78.4492 125.271C78.2734 125.446 78.1855 125.659 78.1855 125.909C78.1855 126.159 78.2734 126.373 78.4492 126.551C78.627 126.727 78.8408 126.814 79.0908 126.814ZM81.9092 124.69H82.7559V129H82.3281V125.112H81.6514L81.9092 124.69ZM88.0967 126.636C88.3877 126.78 88.5957 126.945 88.7207 127.131C88.8477 127.316 88.9111 127.527 88.9111 127.764C88.9111 128.096 88.8027 128.389 88.5859 128.643C88.3203 128.953 87.9404 129.108 87.4463 129.108C86.9697 129.108 86.6084 128.973 86.3623 128.701C86.1162 128.428 85.9932 128.127 85.9932 127.799C85.9932 127.559 86.0576 127.343 86.1865 127.151C86.3154 126.958 86.5303 126.786 86.8311 126.636C86.6201 126.526 86.4619 126.391 86.3564 126.229C86.251 126.066 86.1982 125.893 86.1982 125.707C86.1982 125.52 86.2539 125.337 86.3652 125.159C86.4785 124.979 86.6338 124.839 86.8311 124.737C87.0303 124.634 87.2451 124.582 87.4756 124.582C87.7002 124.582 87.9082 124.634 88.0996 124.737C88.291 124.841 88.4404 124.981 88.5479 125.159C88.6572 125.337 88.7119 125.523 88.7119 125.719C88.7119 125.914 88.6602 126.088 88.5566 126.24C88.4551 126.393 88.3018 126.524 88.0967 126.636ZM87.4551 125.001C87.2188 125.001 87.0225 125.071 86.8662 125.212C86.7119 125.351 86.6348 125.517 86.6348 125.71C86.6348 125.901 86.7178 126.075 86.8838 126.231C87.0518 126.386 87.2471 126.463 87.4697 126.463C87.6123 126.463 87.7471 126.428 87.874 126.357C88.001 126.287 88.0996 126.191 88.1699 126.07C88.2422 125.947 88.2783 125.824 88.2783 125.701C88.2783 125.527 88.208 125.367 88.0674 125.221C87.9268 125.074 87.7227 125.001 87.4551 125.001ZM87.4756 126.853C87.1787 126.853 86.9297 126.949 86.7285 127.143C86.5273 127.334 86.4268 127.558 86.4268 127.813C86.4268 127.972 86.4697 128.121 86.5557 128.262C86.6416 128.402 86.7617 128.511 86.916 128.587C87.0703 128.663 87.249 128.701 87.4521 128.701C87.7666 128.701 88.0166 128.608 88.2021 128.423C88.3877 128.237 88.4805 128.021 88.4805 127.772C88.4805 127.532 88.3818 127.319 88.1846 127.134C87.9893 126.946 87.7529 126.853 87.4756 126.853ZM89.5498 124.69H92.2832L89.9775 129.108L89.623 128.927L91.6152 125.098H89.5498V124.69ZM93.5986 129.108L93.2441 128.88L94.4072 127.116C94.251 127.167 94.1045 127.192 93.9678 127.192C93.626 127.192 93.3359 127.069 93.0977 126.823C92.8594 126.575 92.7402 126.271 92.7402 125.909C92.7402 125.661 92.7979 125.438 92.9131 125.238C93.0283 125.039 93.1914 124.88 93.4023 124.761C93.6152 124.642 93.8428 124.582 94.085 124.582C94.3232 124.582 94.543 124.64 94.7441 124.755C94.9473 124.87 95.1064 125.031 95.2217 125.238C95.3369 125.445 95.3945 125.666 95.3945 125.9C95.3945 126.078 95.3584 126.265 95.2861 126.46C95.2158 126.653 95.0889 126.887 94.9053 127.16L93.5986 129.108ZM94.0674 126.814C94.3193 126.814 94.5332 126.727 94.709 126.551C94.8867 126.373 94.9756 126.159 94.9756 125.909C94.9756 125.659 94.8867 125.446 94.709 125.271C94.5332 125.093 94.3193 125.004 94.0674 125.004C93.8174 125.004 93.6035 125.093 93.4258 125.271C93.25 125.446 93.1621 125.659 93.1621 125.909C93.1621 126.159 93.25 126.373 93.4258 126.551C93.6035 126.727 93.8174 126.814 94.0674 126.814ZM96.8857 124.69H97.7324V129H97.3047V125.112H96.6279L96.8857 124.69ZM100.214 124.69H101.061V129H100.633V125.112H99.9561L100.214 124.69ZM105.382 124.69V125.101H103.847L103.633 126.275C103.82 126.221 103.989 126.193 104.14 126.193C104.532 126.193 104.855 126.325 105.109 126.589C105.365 126.851 105.493 127.187 105.493 127.597C105.493 127.88 105.428 128.14 105.297 128.376C105.166 128.612 104.988 128.794 104.764 128.921C104.541 129.046 104.283 129.108 103.99 129.108C103.641 129.108 103.346 129.002 103.105 128.789C102.865 128.574 102.722 128.297 102.675 127.957H103.117C103.15 128.123 103.206 128.258 103.284 128.361C103.364 128.465 103.47 128.549 103.601 128.613C103.733 128.676 103.872 128.707 104.017 128.707C104.3 128.707 104.543 128.6 104.746 128.385C104.949 128.17 105.051 127.901 105.051 127.579C105.051 127.288 104.959 127.052 104.775 126.87C104.592 126.688 104.347 126.598 104.04 126.598C103.786 126.598 103.479 126.675 103.117 126.829L103.516 124.69H105.382ZM107.96 124.582L108.314 124.813L107.151 126.577C107.308 126.524 107.454 126.498 107.591 126.498C107.933 126.498 108.223 126.622 108.461 126.87C108.699 127.116 108.818 127.42 108.818 127.781C108.818 128.029 108.761 128.254 108.646 128.455C108.53 128.654 108.366 128.813 108.153 128.933C107.942 129.05 107.715 129.108 107.471 129.108C107.234 129.108 107.015 129.052 106.812 128.938C106.61 128.823 106.452 128.662 106.337 128.455C106.222 128.248 106.164 128.026 106.164 127.79C106.164 127.614 106.199 127.43 106.27 127.236C106.342 127.041 106.47 126.807 106.653 126.533L107.96 124.582ZM107.488 126.876C107.238 126.876 107.024 126.965 106.847 127.143C106.671 127.318 106.583 127.532 106.583 127.784C106.583 128.034 106.671 128.248 106.847 128.426C107.024 128.602 107.238 128.689 107.488 128.689C107.738 128.689 107.951 128.602 108.127 128.426C108.305 128.248 108.394 128.034 108.394 127.784C108.394 127.532 108.305 127.318 108.127 127.143C107.951 126.965 107.738 126.876 107.488 126.876ZM109.782 126.041H109.369C109.381 125.615 109.522 125.266 109.794 124.992C110.067 124.719 110.404 124.582 110.805 124.582C111.201 124.582 111.521 124.71 111.766 124.966C112.012 125.222 112.135 125.523 112.135 125.871C112.135 126.115 112.076 126.345 111.959 126.56C111.842 126.772 111.614 127.062 111.276 127.427L110.204 128.584H112.193V129H109.267L110.913 127.222C111.247 126.864 111.464 126.6 111.563 126.428C111.665 126.254 111.716 126.071 111.716 125.88C111.716 125.638 111.625 125.43 111.443 125.256C111.264 125.08 111.043 124.992 110.781 124.992C110.506 124.992 110.276 125.084 110.093 125.268C109.911 125.451 109.808 125.709 109.782 126.041ZM113.11 126.041H112.697C112.709 125.615 112.851 125.266 113.122 124.992C113.396 124.719 113.732 124.582 114.133 124.582C114.529 124.582 114.85 124.71 115.094 124.966C115.34 125.222 115.463 125.523 115.463 125.871C115.463 126.115 115.404 126.345 115.287 126.56C115.17 126.772 114.942 127.062 114.604 127.427L113.532 128.584H115.521V129H112.595L114.241 127.222C114.575 126.864 114.792 126.6 114.892 126.428C114.993 126.254 115.044 126.071 115.044 125.88C115.044 125.638 114.953 125.43 114.771 125.256C114.592 125.08 114.371 124.992 114.109 124.992C113.834 124.992 113.604 125.084 113.421 125.268C113.239 125.451 113.136 125.709 113.11 126.041ZM118.299 124.582H118.387V127.585H118.908V127.998H118.387V129H117.956V127.998H115.896L118.299 124.582ZM117.956 127.585V125.789L116.688 127.585H117.956ZM122.541 124.582H122.96V130.166H122.541V124.582ZM129.634 125.812H130.047V128.353C130.047 128.8 130.008 129.127 129.93 129.334C129.822 129.627 129.636 129.853 129.37 130.011C129.104 130.169 128.785 130.248 128.412 130.248C128.139 130.248 127.893 130.209 127.674 130.131C127.457 130.055 127.28 129.951 127.144 129.82C127.007 129.691 126.881 129.502 126.766 129.252H127.211C127.332 129.463 127.488 129.619 127.68 129.721C127.871 129.822 128.108 129.873 128.392 129.873C128.671 129.873 128.906 129.82 129.098 129.715C129.291 129.611 129.429 129.48 129.511 129.322C129.593 129.164 129.634 128.909 129.634 128.558V128.394C129.479 128.589 129.291 128.739 129.068 128.845C128.846 128.948 128.609 129 128.359 129C128.066 129 127.791 128.928 127.533 128.783C127.275 128.637 127.076 128.44 126.936 128.194C126.795 127.948 126.725 127.678 126.725 127.383C126.725 127.088 126.798 126.813 126.944 126.56C127.091 126.304 127.293 126.102 127.551 125.953C127.811 125.805 128.084 125.73 128.371 125.73C128.609 125.73 128.831 125.78 129.036 125.88C129.243 125.978 129.442 126.14 129.634 126.366V125.812ZM128.424 126.126C128.191 126.126 127.976 126.183 127.776 126.296C127.577 126.407 127.421 126.562 127.308 126.762C127.194 126.959 127.138 127.173 127.138 127.403C127.138 127.753 127.255 128.042 127.489 128.271C127.724 128.499 128.027 128.613 128.4 128.613C128.777 128.613 129.08 128.5 129.309 128.273C129.539 128.047 129.654 127.749 129.654 127.38C129.654 127.14 129.602 126.926 129.496 126.738C129.391 126.549 129.241 126.399 129.048 126.29C128.854 126.181 128.646 126.126 128.424 126.126ZM131.069 124.5C131.163 124.5 131.243 124.533 131.31 124.6C131.376 124.666 131.409 124.746 131.409 124.84C131.409 124.932 131.376 125.011 131.31 125.077C131.243 125.144 131.163 125.177 131.069 125.177C130.978 125.177 130.898 125.144 130.832 125.077C130.766 125.011 130.732 124.932 130.732 124.84C130.732 124.746 130.766 124.666 130.832 124.6C130.898 124.533 130.978 124.5 131.069 124.5ZM130.864 125.812H131.277V129H130.864V125.812ZM131.972 125.812H132.391V126.278C132.516 126.095 132.647 125.958 132.786 125.868C132.925 125.776 133.069 125.73 133.22 125.73C133.333 125.73 133.454 125.767 133.583 125.839L133.369 126.185C133.283 126.147 133.211 126.129 133.152 126.129C133.016 126.129 132.884 126.186 132.757 126.299C132.63 126.41 132.533 126.584 132.467 126.82C132.416 127.002 132.391 127.369 132.391 127.922V129H131.972V125.812ZM134.075 124.5C134.169 124.5 134.249 124.533 134.315 124.6C134.382 124.666 134.415 124.746 134.415 124.84C134.415 124.932 134.382 125.011 134.315 125.077C134.249 125.144 134.169 125.177 134.075 125.177C133.983 125.177 133.904 125.144 133.838 125.077C133.771 125.011 133.738 124.932 133.738 124.84C133.738 124.746 133.771 124.666 133.838 124.6C133.904 124.533 133.983 124.5 134.075 124.5ZM133.87 125.812H134.283V129H133.87V125.812ZM136.735 126.161L136.472 126.434C136.253 126.221 136.039 126.114 135.83 126.114C135.697 126.114 135.583 126.158 135.487 126.246C135.394 126.334 135.347 126.437 135.347 126.554C135.347 126.657 135.386 126.756 135.464 126.85C135.542 126.945 135.706 127.058 135.956 127.187C136.261 127.345 136.468 127.497 136.577 127.644C136.685 127.792 136.738 127.959 136.738 128.145C136.738 128.406 136.646 128.628 136.463 128.81C136.279 128.991 136.05 129.082 135.774 129.082C135.591 129.082 135.415 129.042 135.247 128.962C135.081 128.882 134.943 128.771 134.834 128.631L135.092 128.338C135.301 128.574 135.522 128.692 135.757 128.692C135.921 128.692 136.061 128.64 136.176 128.534C136.291 128.429 136.349 128.305 136.349 128.162C136.349 128.045 136.311 127.94 136.234 127.849C136.158 127.759 135.986 127.646 135.719 127.509C135.432 127.36 135.236 127.214 135.133 127.069C135.029 126.925 134.978 126.76 134.978 126.574C134.978 126.332 135.06 126.131 135.224 125.971C135.39 125.811 135.599 125.73 135.851 125.73C136.144 125.73 136.438 125.874 136.735 126.161ZM137.465 124.582H137.875V126.384C138.041 126.165 138.224 126.002 138.423 125.895C138.622 125.785 138.838 125.73 139.07 125.73C139.309 125.73 139.52 125.791 139.703 125.912C139.889 126.033 140.025 126.196 140.113 126.401C140.201 126.604 140.245 126.924 140.245 127.359V129H139.835V127.479C139.835 127.112 139.82 126.867 139.791 126.744C139.74 126.533 139.647 126.375 139.513 126.27C139.38 126.162 139.205 126.108 138.988 126.108C138.74 126.108 138.518 126.19 138.32 126.354C138.125 126.519 137.996 126.722 137.934 126.964C137.895 127.12 137.875 127.409 137.875 127.831V129H137.465V124.582ZM144.9 128.118H145.211C144.949 128.444 144.707 128.673 144.484 128.804C144.168 128.987 143.808 129.079 143.403 129.079C142.976 129.079 142.581 128.979 142.22 128.777C141.858 128.574 141.576 128.298 141.373 127.948C141.172 127.599 141.071 127.217 141.071 126.803C141.071 126.383 141.173 125.992 141.376 125.631C141.581 125.27 141.859 124.989 142.211 124.79C142.562 124.589 142.947 124.488 143.365 124.488C143.955 124.488 144.453 124.678 144.859 125.057C145.266 125.434 145.469 125.873 145.469 126.375C145.469 126.74 145.384 127.056 145.214 127.321C145.046 127.585 144.817 127.79 144.528 127.937C144.308 128.05 144.119 128.106 143.963 128.106C143.85 128.106 143.76 128.076 143.693 128.016C143.643 127.971 143.616 127.893 143.614 127.781C143.548 127.865 143.456 127.936 143.339 127.992C143.224 128.049 143.104 128.077 142.979 128.077C142.697 128.077 142.465 127.98 142.281 127.787C142.098 127.592 142.006 127.334 142.006 127.014C142.006 126.668 142.117 126.353 142.34 126.067C142.562 125.782 142.869 125.64 143.26 125.64C143.432 125.64 143.575 125.672 143.69 125.736C143.808 125.801 143.918 125.913 144.021 126.073L144.098 125.669H144.414L144.074 127.585C144.064 127.647 144.06 127.688 144.06 127.705C144.06 127.75 144.073 127.785 144.101 127.811C144.128 127.836 144.163 127.849 144.206 127.849C144.321 127.849 144.471 127.782 144.654 127.649C144.84 127.515 144.983 127.343 145.085 127.134C145.188 126.923 145.24 126.689 145.24 126.434C145.24 125.938 145.048 125.526 144.663 125.2C144.304 124.897 143.866 124.746 143.351 124.746C142.968 124.746 142.62 124.834 142.308 125.01C141.997 125.184 141.751 125.43 141.569 125.748C141.39 126.064 141.3 126.407 141.3 126.776C141.3 127.149 141.391 127.494 141.572 127.811C141.754 128.125 142.005 128.372 142.325 128.552C142.647 128.731 143.002 128.821 143.389 128.821C143.672 128.821 143.929 128.771 144.159 128.669C144.39 128.567 144.637 128.384 144.9 128.118ZM143.125 127.746C143.254 127.746 143.375 127.706 143.488 127.626C143.602 127.544 143.691 127.422 143.758 127.26C143.844 127.047 143.887 126.833 143.887 126.618C143.887 126.421 143.831 126.261 143.72 126.138C143.61 126.015 143.468 125.953 143.292 125.953C143.058 125.953 142.854 126.05 142.683 126.243C142.513 126.435 142.428 126.674 142.428 126.961C142.428 127.201 142.492 127.393 142.621 127.535C142.752 127.676 142.92 127.746 143.125 127.746ZM146.327 125.812H146.734V126.363C146.877 126.16 147.023 126.012 147.174 125.918C147.381 125.793 147.599 125.73 147.827 125.73C147.981 125.73 148.128 125.761 148.267 125.821C148.405 125.882 148.519 125.963 148.606 126.064C148.694 126.164 148.771 126.308 148.835 126.495C148.972 126.245 149.143 126.056 149.348 125.927C149.553 125.796 149.773 125.73 150.01 125.73C150.23 125.73 150.425 125.786 150.593 125.897C150.763 126.009 150.889 126.164 150.971 126.363C151.053 126.562 151.094 126.861 151.094 127.26V129H150.675V127.26C150.675 126.918 150.65 126.684 150.602 126.557C150.553 126.428 150.469 126.324 150.35 126.246C150.232 126.168 150.092 126.129 149.928 126.129C149.729 126.129 149.546 126.188 149.38 126.305C149.216 126.422 149.096 126.578 149.02 126.773C148.943 126.969 148.905 127.295 148.905 127.752V129H148.498V127.368C148.498 126.983 148.474 126.723 148.425 126.586C148.378 126.447 148.295 126.337 148.176 126.255C148.057 126.171 147.915 126.129 147.751 126.129C147.562 126.129 147.384 126.187 147.218 126.302C147.054 126.415 146.932 126.568 146.852 126.762C146.773 126.955 146.734 127.251 146.734 127.649V129H146.327V125.812ZM154.645 127.942L154.99 128.124C154.877 128.347 154.746 128.526 154.598 128.663C154.449 128.8 154.282 128.904 154.097 128.977C153.911 129.047 153.701 129.082 153.467 129.082C152.947 129.082 152.541 128.912 152.248 128.572C151.955 128.23 151.809 127.845 151.809 127.415C151.809 127.011 151.933 126.65 152.181 126.334C152.495 125.932 152.916 125.73 153.443 125.73C153.986 125.73 154.42 125.937 154.744 126.349C154.975 126.64 155.092 127.003 155.096 127.438H152.23C152.238 127.81 152.356 128.114 152.585 128.353C152.813 128.589 153.096 128.707 153.432 128.707C153.594 128.707 153.751 128.679 153.903 128.622C154.058 128.565 154.188 128.49 154.296 128.396C154.403 128.303 154.52 128.151 154.645 127.942ZM154.645 127.084C154.59 126.865 154.51 126.69 154.404 126.56C154.301 126.429 154.163 126.323 153.991 126.243C153.819 126.163 153.639 126.123 153.449 126.123C153.137 126.123 152.868 126.224 152.644 126.425C152.479 126.571 152.355 126.791 152.271 127.084H154.645ZM155.708 125.812H156.127V126.278C156.252 126.095 156.384 125.958 156.522 125.868C156.661 125.776 156.806 125.73 156.956 125.73C157.069 125.73 157.19 125.767 157.319 125.839L157.105 126.185C157.02 126.147 156.947 126.129 156.889 126.129C156.752 126.129 156.62 126.186 156.493 126.299C156.366 126.41 156.27 126.584 156.203 126.82C156.152 127.002 156.127 127.369 156.127 127.922V129H155.708V125.812ZM160.762 126.475L160.437 126.677C160.155 126.304 159.771 126.117 159.285 126.117C158.896 126.117 158.573 126.242 158.315 126.492C158.06 126.742 157.932 127.046 157.932 127.403C157.932 127.636 157.99 127.854 158.107 128.06C158.227 128.265 158.389 128.424 158.594 128.537C158.801 128.65 159.032 128.707 159.288 128.707C159.757 128.707 160.14 128.521 160.437 128.147L160.762 128.361C160.609 128.59 160.404 128.768 160.146 128.895C159.891 129.02 159.599 129.082 159.271 129.082C158.767 129.082 158.349 128.922 158.017 128.602C157.685 128.281 157.519 127.892 157.519 127.433C157.519 127.124 157.596 126.838 157.75 126.574C157.906 126.309 158.12 126.102 158.392 125.953C158.663 125.805 158.967 125.73 159.303 125.73C159.514 125.73 159.717 125.763 159.912 125.827C160.109 125.892 160.276 125.976 160.413 126.079C160.55 126.183 160.666 126.314 160.762 126.475ZM164.729 125.812V129H164.324V128.452C164.152 128.661 163.959 128.818 163.744 128.924C163.531 129.029 163.298 129.082 163.044 129.082C162.593 129.082 162.207 128.919 161.887 128.593C161.568 128.265 161.409 127.866 161.409 127.397C161.409 126.938 161.57 126.546 161.893 126.22C162.215 125.894 162.603 125.73 163.056 125.73C163.317 125.73 163.554 125.786 163.765 125.897C163.978 126.009 164.164 126.176 164.324 126.398V125.812H164.729ZM163.088 126.126C162.859 126.126 162.648 126.183 162.455 126.296C162.262 126.407 162.107 126.564 161.992 126.768C161.879 126.971 161.822 127.186 161.822 127.412C161.822 127.637 161.88 127.852 161.995 128.057C162.11 128.262 162.265 128.422 162.458 128.537C162.653 128.65 162.862 128.707 163.085 128.707C163.31 128.707 163.522 128.65 163.724 128.537C163.925 128.424 164.079 128.271 164.187 128.077C164.296 127.884 164.351 127.666 164.351 127.424C164.351 127.055 164.229 126.746 163.984 126.498C163.742 126.25 163.443 126.126 163.088 126.126ZM168.836 124.582V129H168.432V128.452C168.26 128.661 168.066 128.818 167.852 128.924C167.639 129.029 167.405 129.082 167.151 129.082C166.7 129.082 166.314 128.919 165.994 128.593C165.676 128.265 165.517 127.866 165.517 127.397C165.517 126.938 165.678 126.546 166 126.22C166.322 125.894 166.71 125.73 167.163 125.73C167.425 125.73 167.661 125.786 167.872 125.897C168.085 126.009 168.271 126.176 168.432 126.398V124.582H168.836ZM167.195 126.126C166.967 126.126 166.756 126.183 166.562 126.296C166.369 126.407 166.215 126.564 166.1 126.768C165.986 126.971 165.93 127.186 165.93 127.412C165.93 127.637 165.987 127.852 166.103 128.057C166.218 128.262 166.372 128.422 166.565 128.537C166.761 128.65 166.97 128.707 167.192 128.707C167.417 128.707 167.63 128.65 167.831 128.537C168.032 128.424 168.187 128.271 168.294 128.077C168.403 127.884 168.458 127.666 168.458 127.424C168.458 127.055 168.336 126.746 168.092 126.498C167.85 126.25 167.551 126.126 167.195 126.126ZM171.276 125.73C171.767 125.73 172.173 125.908 172.495 126.264C172.788 126.588 172.935 126.972 172.935 127.415C172.935 127.86 172.779 128.25 172.469 128.584C172.16 128.916 171.763 129.082 171.276 129.082C170.788 129.082 170.389 128.916 170.078 128.584C169.77 128.25 169.615 127.86 169.615 127.415C169.615 126.974 169.762 126.591 170.055 126.267C170.377 125.909 170.784 125.73 171.276 125.73ZM171.276 126.132C170.937 126.132 170.645 126.258 170.4 126.51C170.156 126.762 170.034 127.066 170.034 127.424C170.034 127.654 170.09 127.869 170.201 128.068C170.312 128.268 170.463 128.422 170.652 128.531C170.842 128.639 171.05 128.692 171.276 128.692C171.503 128.692 171.711 128.639 171.9 128.531C172.09 128.422 172.24 128.268 172.352 128.068C172.463 127.869 172.519 127.654 172.519 127.424C172.519 127.066 172.396 126.762 172.149 126.51C171.905 126.258 171.614 126.132 171.276 126.132ZM174.15 128.355C174.25 128.355 174.335 128.391 174.405 128.461C174.476 128.531 174.511 128.617 174.511 128.719C174.511 128.818 174.476 128.904 174.405 128.977C174.335 129.047 174.25 129.082 174.15 129.082C174.051 129.082 173.966 129.047 173.896 128.977C173.825 128.904 173.79 128.818 173.79 128.719C173.79 128.617 173.825 128.531 173.896 128.461C173.966 128.391 174.051 128.355 174.15 128.355ZM176.966 126.161L176.702 126.434C176.483 126.221 176.27 126.114 176.061 126.114C175.928 126.114 175.813 126.158 175.718 126.246C175.624 126.334 175.577 126.437 175.577 126.554C175.577 126.657 175.616 126.756 175.694 126.85C175.772 126.945 175.937 127.058 176.187 127.187C176.491 127.345 176.698 127.497 176.808 127.644C176.915 127.792 176.969 127.959 176.969 128.145C176.969 128.406 176.877 128.628 176.693 128.81C176.51 128.991 176.28 129.082 176.005 129.082C175.821 129.082 175.646 129.042 175.478 128.962C175.312 128.882 175.174 128.771 175.064 128.631L175.322 128.338C175.531 128.574 175.753 128.692 175.987 128.692C176.151 128.692 176.291 128.64 176.406 128.534C176.521 128.429 176.579 128.305 176.579 128.162C176.579 128.045 176.541 127.94 176.465 127.849C176.389 127.759 176.217 127.646 175.949 127.509C175.662 127.36 175.467 127.214 175.363 127.069C175.26 126.925 175.208 126.76 175.208 126.574C175.208 126.332 175.29 126.131 175.454 125.971C175.62 125.811 175.829 125.73 176.081 125.73C176.374 125.73 176.669 125.874 176.966 126.161ZM178.053 124.629H178.466V125.812H179.116V126.164H178.466V129H178.053V126.164H177.493V125.812H178.053V124.629ZM179.676 125.812H180.089V127.301C180.089 127.664 180.108 127.914 180.147 128.051C180.206 128.246 180.317 128.4 180.481 128.514C180.647 128.627 180.845 128.684 181.073 128.684C181.302 128.684 181.495 128.629 181.653 128.52C181.813 128.408 181.924 128.263 181.984 128.083C182.025 127.96 182.046 127.699 182.046 127.301V125.812H182.465V127.377C182.465 127.816 182.413 128.147 182.31 128.37C182.208 128.593 182.054 128.768 181.847 128.895C181.642 129.02 181.384 129.082 181.073 129.082C180.763 129.082 180.503 129.02 180.294 128.895C180.087 128.768 179.932 128.592 179.828 128.367C179.727 128.141 179.676 127.801 179.676 127.348V125.812ZM186.561 124.582V129H186.156V128.452C185.984 128.661 185.791 128.818 185.576 128.924C185.363 129.029 185.13 129.082 184.876 129.082C184.425 129.082 184.039 128.919 183.719 128.593C183.4 128.265 183.241 127.866 183.241 127.397C183.241 126.938 183.402 126.546 183.725 126.22C184.047 125.894 184.435 125.73 184.888 125.73C185.149 125.73 185.386 125.786 185.597 125.897C185.81 126.009 185.996 126.176 186.156 126.398V124.582H186.561ZM184.92 126.126C184.691 126.126 184.48 126.183 184.287 126.296C184.094 126.407 183.939 126.564 183.824 126.768C183.711 126.971 183.654 127.186 183.654 127.412C183.654 127.637 183.712 127.852 183.827 128.057C183.942 128.262 184.097 128.422 184.29 128.537C184.485 128.65 184.694 128.707 184.917 128.707C185.142 128.707 185.354 128.65 185.556 128.537C185.757 128.424 185.911 128.271 186.019 128.077C186.128 127.884 186.183 127.666 186.183 127.424C186.183 127.055 186.061 126.746 185.816 126.498C185.574 126.25 185.275 126.126 184.92 126.126ZM187.636 124.5C187.729 124.5 187.81 124.533 187.876 124.6C187.942 124.666 187.976 124.746 187.976 124.84C187.976 124.932 187.942 125.011 187.876 125.077C187.81 125.144 187.729 125.177 187.636 125.177C187.544 125.177 187.465 125.144 187.398 125.077C187.332 125.011 187.299 124.932 187.299 124.84C187.299 124.746 187.332 124.666 187.398 124.6C187.465 124.533 187.544 124.5 187.636 124.5ZM187.431 125.812H187.844V129H187.431V125.812ZM190.202 125.73C190.692 125.73 191.099 125.908 191.421 126.264C191.714 126.588 191.86 126.972 191.86 127.415C191.86 127.86 191.705 128.25 191.395 128.584C191.086 128.916 190.688 129.082 190.202 129.082C189.714 129.082 189.314 128.916 189.004 128.584C188.695 128.25 188.541 127.86 188.541 127.415C188.541 126.974 188.688 126.591 188.98 126.267C189.303 125.909 189.71 125.73 190.202 125.73ZM190.202 126.132C189.862 126.132 189.57 126.258 189.326 126.51C189.082 126.762 188.96 127.066 188.96 127.424C188.96 127.654 189.016 127.869 189.127 128.068C189.238 128.268 189.389 128.422 189.578 128.531C189.768 128.639 189.976 128.692 190.202 128.692C190.429 128.692 190.637 128.639 190.826 128.531C191.016 128.422 191.166 128.268 191.277 128.068C191.389 127.869 191.444 127.654 191.444 127.424C191.444 127.066 191.321 126.762 191.075 126.51C190.831 126.258 190.54 126.132 190.202 126.132Z" fill="#201E1F"/>
<path d="M74.232 43H75.944L70.792 32.408L68.824 36.552L66.792 32.408L61.752 43H63.464L66.792 35.976L68.824 40.152L70.824 35.96L74.232 43ZM77.4363 43H85.0363V41.576H78.9403V34.44H85.0363V33.016H77.4363V43ZM84.9243 37.56H79.9643V38.984H84.9243V37.56ZM94.1009 43L91.3329 37.56H93.1409C93.3435 37.56 93.5195 37.512 93.6689 37.416C93.8182 37.32 93.9409 37.1973 94.0369 37.048C94.1329 36.8987 94.2022 36.7333 94.2449 36.552C94.2875 36.3707 94.3089 36.2 94.3089 36.04C94.3089 35.8693 94.2769 35.6933 94.2129 35.512C94.1595 35.32 94.0795 35.144 93.9729 34.984C93.8769 34.824 93.7542 34.696 93.6049 34.6C93.4555 34.4933 93.2849 34.44 93.0929 34.44H88.5969V43H87.0929V33.016H93.3009C93.6529 33.016 93.9835 33.096 94.2929 33.256C94.6022 33.4053 94.8742 33.6187 95.1089 33.896C95.3435 34.1627 95.5302 34.4827 95.6689 34.856C95.8075 35.2293 95.8769 35.6293 95.8769 36.056C95.8769 36.408 95.8182 36.7493 95.7009 37.08C95.5942 37.4 95.4395 37.6933 95.2369 37.96C95.0449 38.2267 94.8155 38.4507 94.5489 38.632C94.2822 38.8027 93.9942 38.9147 93.6849 38.968L95.7329 43H94.1009ZM97.3849 38.008C97.3849 37.3147 97.5129 36.664 97.7689 36.056C98.0355 35.4373 98.3982 34.904 98.8569 34.456C99.3155 33.9973 99.8542 33.6347 100.473 33.368C101.092 33.1013 101.753 32.968 102.457 32.968C102.969 32.968 103.46 33.048 103.929 33.208C104.398 33.3573 104.83 33.5707 105.225 33.848C105.63 34.1253 105.993 34.456 106.313 34.84C106.644 35.224 106.916 35.6453 107.129 36.104L105.897 36.92C105.737 36.568 105.534 36.2427 105.289 35.944C105.054 35.6347 104.788 35.3733 104.489 35.16C104.19 34.936 103.87 34.7653 103.529 34.648C103.188 34.52 102.836 34.456 102.473 34.456C101.982 34.456 101.518 34.552 101.081 34.744C100.644 34.936 100.26 35.1973 99.9289 35.528C99.6089 35.8587 99.3529 36.2373 99.1609 36.664C98.9689 37.0907 98.8729 37.544 98.8729 38.024C98.8729 38.504 98.9689 38.9573 99.1609 39.384C99.3529 39.8107 99.6089 40.184 99.9289 40.504C100.26 40.824 100.638 41.08 101.065 41.272C101.502 41.464 101.966 41.56 102.457 41.56C102.788 41.56 103.113 41.512 103.433 41.416C103.753 41.3093 104.057 41.1653 104.345 40.984C104.633 40.792 104.9 40.568 105.145 40.312C105.39 40.0453 105.598 39.7573 105.769 39.448L106.857 40.536C106.377 41.2933 105.758 41.9013 105.001 42.36C104.244 42.8187 103.396 43.048 102.457 43.048C101.753 43.048 101.092 42.9147 100.473 42.648C99.8542 42.3813 99.3155 42.024 98.8569 41.576C98.3982 41.1173 98.0355 40.584 97.7689 39.976C97.5129 39.3573 97.3849 38.7013 97.3849 38.008ZM107.595 43L113.019 32.2L118.395 43H110.731L111.707 41.576H115.947L113.019 35.544L109.323 43H107.595ZM121.409 34.472V41.56H124.081C124.529 41.56 124.967 41.4693 125.393 41.288C125.82 41.096 126.199 40.84 126.529 40.52C126.871 40.2 127.143 39.8267 127.345 39.4C127.559 38.9733 127.665 38.5253 127.665 38.056C127.665 37.576 127.569 37.1227 127.377 36.696C127.185 36.2587 126.924 35.88 126.593 35.56C126.273 35.2293 125.895 34.968 125.457 34.776C125.031 34.5733 124.577 34.472 124.097 34.472H121.409ZM119.905 43V33.016H124.081C124.785 33.016 125.441 33.1493 126.049 33.416C126.668 33.672 127.207 34.0293 127.665 34.488C128.124 34.9467 128.481 35.48 128.737 36.088C129.004 36.696 129.137 37.3467 129.137 38.04C129.137 38.7333 128.993 39.384 128.705 39.992C128.417 40.5893 128.039 41.112 127.569 41.56C127.1 42.008 126.561 42.36 125.953 42.616C125.356 42.872 124.743 43 124.113 43H119.905ZM132.295 38.04C132.295 38.3813 132.348 38.7173 132.455 39.048C132.572 39.3787 132.732 39.6933 132.935 39.992C133.138 40.2907 133.378 40.5627 133.655 40.808C133.943 41.0427 134.263 41.24 134.615 41.4L133.655 42.6C133.228 42.376 132.839 42.104 132.487 41.784C132.135 41.4533 131.836 41.0907 131.591 40.696C131.346 40.3013 131.154 39.88 131.015 39.432C130.876 38.9733 130.807 38.504 130.807 38.024C130.807 37.3307 130.935 36.68 131.191 36.072C131.458 35.4533 131.815 34.92 132.263 34.472C132.722 34.0133 133.26 33.6507 133.879 33.384C134.498 33.1173 135.164 32.984 135.879 32.984C136.583 32.984 137.244 33.1173 137.863 33.384C138.482 33.6507 139.015 34.0133 139.463 34.472C139.922 34.92 140.284 35.4533 140.551 36.072C140.818 36.68 140.951 37.3307 140.951 38.024C140.951 38.504 140.876 38.9733 140.727 39.432C140.588 39.8907 140.386 40.3173 140.119 40.712C139.852 41.1067 139.538 41.464 139.175 41.784C138.812 42.104 138.407 42.376 137.959 42.6L137.143 41.368C137.474 41.208 137.783 41.0107 138.071 40.776C138.359 40.5307 138.604 40.264 138.807 39.976C139.02 39.688 139.186 39.3787 139.303 39.048C139.42 38.7173 139.479 38.3813 139.479 38.04C139.479 37.56 139.383 37.1067 139.191 36.68C138.999 36.2533 138.738 35.8747 138.407 35.544C138.076 35.2133 137.692 34.952 137.255 34.76C136.828 34.568 136.375 34.472 135.895 34.472C135.404 34.472 134.94 34.568 134.503 34.76C134.066 34.952 133.682 35.2133 133.351 35.544C133.031 35.8747 132.775 36.2533 132.583 36.68C132.391 37.1067 132.295 37.56 132.295 38.04ZM141.6 41.976C141.6 41.6667 141.696 41.416 141.888 41.224C142.08 41.0213 142.331 40.92 142.64 40.92C142.949 40.92 143.205 41.0213 143.408 41.224C143.611 41.416 143.712 41.6667 143.712 41.976C143.712 42.2853 143.611 42.5413 143.408 42.744C143.205 42.936 142.949 43.032 142.64 43.032C142.331 43.032 142.08 42.936 141.888 42.744C141.696 42.5413 141.6 42.2853 141.6 41.976ZM145.516 41.576H151.164C151.644 41.576 152.001 41.4427 152.236 41.176C152.47 40.8987 152.588 40.552 152.588 40.136C152.588 39.7733 152.492 39.4693 152.3 39.224C152.108 38.9787 151.798 38.8133 151.372 38.728V37.288C151.745 37.288 152.097 37.3627 152.428 37.512C152.769 37.6613 153.062 37.8693 153.308 38.136C153.564 38.392 153.766 38.696 153.916 39.048C154.065 39.3893 154.14 39.752 154.14 40.136C154.14 40.5627 154.07 40.952 153.932 41.304C153.793 41.656 153.606 41.96 153.372 42.216C153.148 42.4613 152.876 42.6533 152.556 42.792C152.246 42.9307 151.916 43 151.564 43H145.516V41.576ZM153.98 34.44H148.316C147.836 34.44 147.478 34.5787 147.244 34.856C147.009 35.1227 146.892 35.464 146.892 35.88C146.892 36.2533 146.988 36.5627 147.18 36.808C147.372 37.0533 147.681 37.2187 148.108 37.304V38.728C147.734 38.728 147.377 38.6533 147.036 38.504C146.705 38.3547 146.412 38.152 146.156 37.896C145.91 37.6293 145.713 37.3253 145.564 36.984C145.425 36.632 145.356 36.264 145.356 35.88C145.356 35.4533 145.42 35.064 145.548 34.712C145.686 34.36 145.868 34.0613 146.092 33.816C146.326 33.56 146.598 33.3627 146.908 33.224C147.228 33.0853 147.564 33.016 147.916 33.016H153.98V34.44ZM156.029 33.016H164.589V34.44H161.053V43H159.533V34.44H156.029V33.016ZM166.609 33.016H168.129V38.488C168.182 38.9147 168.315 39.3147 168.529 39.688C168.742 40.0613 169.009 40.3867 169.329 40.664C169.649 40.9413 170.011 41.16 170.417 41.32C170.822 41.48 171.249 41.56 171.697 41.56C172.145 41.56 172.571 41.48 172.977 41.32C173.382 41.16 173.739 40.9413 174.049 40.664C174.369 40.3867 174.63 40.0613 174.833 39.688C175.046 39.3147 175.179 38.9147 175.233 38.488V33.016H176.769V38.04C176.769 38.7333 176.635 39.384 176.369 39.992C176.102 40.6 175.739 41.1333 175.281 41.592C174.833 42.04 174.299 42.3973 173.681 42.664C173.062 42.92 172.401 43.048 171.697 43.048C170.993 43.048 170.331 42.92 169.713 42.664C169.094 42.3973 168.555 42.04 168.097 41.592C167.638 41.1333 167.275 40.6 167.009 39.992C166.742 39.384 166.609 38.7333 166.609 38.04V33.016ZM180.331 34.472V41.56H183.003C183.451 41.56 183.889 41.4693 184.315 41.288C184.742 41.096 185.121 40.84 185.451 40.52C185.793 40.2 186.065 39.8267 186.267 39.4C186.481 38.9733 186.587 38.5253 186.587 38.056C186.587 37.576 186.491 37.1227 186.299 36.696C186.107 36.2587 185.846 35.88 185.515 35.56C185.195 35.2293 184.817 34.968 184.379 34.776C183.953 34.5733 183.499 34.472 183.019 34.472H180.331ZM178.827 43V33.016H183.003C183.707 33.016 184.363 33.1493 184.971 33.416C185.59 33.672 186.129 34.0293 186.587 34.488C187.046 34.9467 187.403 35.48 187.659 36.088C187.926 36.696 188.059 37.3467 188.059 38.04C188.059 38.7333 187.915 39.384 187.627 39.992C187.339 40.5893 186.961 41.112 186.491 41.56C186.022 42.008 185.483 42.36 184.875 42.616C184.278 42.872 183.665 43 183.035 43H178.827ZM189.921 43V33.016H191.425V43H189.921ZM194.78 38.04C194.78 38.3813 194.833 38.7173 194.94 39.048C195.057 39.3787 195.217 39.6933 195.42 39.992C195.622 40.2907 195.862 40.5627 196.14 40.808C196.428 41.0427 196.748 41.24 197.1 41.4L196.14 42.6C195.713 42.376 195.324 42.104 194.972 41.784C194.62 41.4533 194.321 41.0907 194.076 40.696C193.83 40.3013 193.638 39.88 193.5 39.432C193.361 38.9733 193.292 38.504 193.292 38.024C193.292 37.3307 193.42 36.68 193.676 36.072C193.942 35.4533 194.3 34.92 194.748 34.472C195.206 34.0133 195.745 33.6507 196.364 33.384C196.982 33.1173 197.649 32.984 198.364 32.984C199.068 32.984 199.729 33.1173 200.348 33.384C200.966 33.6507 201.5 34.0133 201.948 34.472C202.406 34.92 202.769 35.4533 203.036 36.072C203.302 36.68 203.436 37.3307 203.436 38.024C203.436 38.504 203.361 38.9733 203.212 39.432C203.073 39.8907 202.87 40.3173 202.604 40.712C202.337 41.1067 202.022 41.464 201.66 41.784C201.297 42.104 200.892 42.376 200.444 42.6L199.628 41.368C199.958 41.208 200.268 41.0107 200.556 40.776C200.844 40.5307 201.089 40.264 201.292 39.976C201.505 39.688 201.67 39.3787 201.788 39.048C201.905 38.7173 201.964 38.3813 201.964 38.04C201.964 37.56 201.868 37.1067 201.676 36.68C201.484 36.2533 201.222 35.8747 200.892 35.544C200.561 35.2133 200.177 34.952 199.74 34.76C199.313 34.568 198.86 34.472 198.38 34.472C197.889 34.472 197.425 34.568 196.988 34.76C196.55 34.952 196.166 35.2133 195.836 35.544C195.516 35.8747 195.26 36.2533 195.068 36.68C194.876 37.1067 194.78 37.56 194.78 38.04Z" fill="url(#paint0_linear_9_49)"/>
<rect x="9.1" y="62.1" width="247.8" height="79.8" stroke="#D1C1CD" stroke-width="0.2"/>
<defs>
<linearGradient id="paint0_linear_9_49" x1="128.528" y1="30" x2="128.528" y2="52.6667" gradientUnits="userSpaceOnUse">
<stop stop-color="#201E1F"/>
<stop offset="1" stop-color="#EE0EAF"/>
</linearGradient>
</defs>
</svg>
