<svg width="40" height="40" viewBox="0 0 40 40" fill="none" xmlns="http://www.w3.org/2000/svg">
<path d="M20 0.75C9.36953 0.75 0.75 9.36953 0.75 20C0.75 30.6305 9.36953 39.25 20 39.25C30.6305 39.25 39.25 30.6305 39.25 20C39.25 9.36953 30.6305 0.75 20 0.75ZM20 35.9844C11.1742 35.9844 4.01562 28.8258 4.01562 20C4.01562 11.1742 11.1742 4.01562 20 4.01562C28.8258 4.01562 35.9844 11.1742 35.9844 20C35.9844 28.8258 28.8258 35.9844 20 35.9844ZM22.0496 19.0031L20.9582 18.7496V12.9789C22.591 13.2023 23.6008 14.225 23.7727 15.4797C23.7941 15.6516 23.9402 15.7762 24.1121 15.7762H26.0414C26.2434 15.7762 26.4023 15.6 26.3852 15.398C26.123 12.7211 23.9188 11.0023 20.9754 10.7059V9.30078C20.9754 9.11172 20.8207 8.95703 20.6316 8.95703H19.4242C19.2352 8.95703 19.0805 9.11172 19.0805 9.30078V10.7188C16.0383 11.0152 13.6578 12.6953 13.6578 15.832C13.6578 18.7367 15.7977 20.1375 18.0449 20.6746L19.1063 20.9453V27.077C17.207 26.8234 16.1414 25.8094 15.9223 24.443C15.8965 24.2797 15.7504 24.1594 15.5828 24.1594H13.5977C13.3957 24.1594 13.2367 24.3312 13.2539 24.5332C13.4473 26.8965 15.2391 29.0707 19.0633 29.35V30.6992C19.0633 30.8883 19.218 31.043 19.407 31.043H20.6273C20.8164 31.043 20.9711 30.8883 20.9711 30.6949L20.9625 29.3328C24.327 29.0363 26.7332 27.2359 26.7332 24.0047C26.7289 21.0227 24.834 19.6906 22.0496 19.0031ZM19.102 18.307C18.8613 18.2383 18.6594 18.1738 18.4574 18.0922C17.0051 17.568 16.3305 16.7215 16.3305 15.6301C16.3305 14.0703 17.5121 13.1809 19.102 12.9789V18.307ZM20.9582 27.0898V21.3449C21.0914 21.3836 21.2117 21.4137 21.3363 21.4395C23.3687 22.0582 24.052 22.9176 24.052 24.2367C24.052 25.9168 22.7887 26.9266 20.9582 27.0898Z" fill="white"/>
</svg>
