<svg width="21" height="21" viewBox="0 0 21 21" fill="none" xmlns="http://www.w3.org/2000/svg">
<rect width="21" height="21" rx="5" fill="black" fill-opacity="0.25"/>
<g clip-path="url(#clip0_2368_33077)">
<path d="M9.32197 11.6853C9.40011 11.7634 9.50609 11.8073 9.6166 11.8073C9.72711 11.8073 9.83309 11.7634 9.91123 11.6853L11.679 9.91749C11.7571 9.83935 11.801 9.73337 11.801 9.62286C11.801 9.51235 11.7571 9.40637 11.679 9.32823C11.6009 9.25009 11.4949 9.20619 11.3844 9.20619C11.2739 9.20619 11.1679 9.25009 11.0897 9.32823L9.32197 11.096C9.24383 11.1741 9.19993 11.2801 9.19993 11.3906C9.19993 11.5011 9.24383 11.6071 9.32197 11.6853Z" fill="#D6D6D6"/>
<path d="M10.7967 12.5696L10.2693 13.097C9.9746 13.4078 9.57458 13.5976 9.14741 13.6292C8.72024 13.6608 8.29664 13.532 7.95941 13.2679C7.78053 13.1194 7.63468 12.9351 7.53125 12.727C7.42781 12.5188 7.36907 12.2912 7.35881 12.059C7.34854 11.8267 7.38697 11.5949 7.47163 11.3784C7.5563 11.1619 7.68531 10.9655 7.8504 10.8018L8.43965 10.2126C8.5178 10.1344 8.56169 10.0285 8.56169 9.91795C8.56169 9.80744 8.5178 9.70146 8.43966 9.62332C8.36152 9.54518 8.25553 9.50128 8.14503 9.50128C8.03452 9.50128 7.92854 9.54518 7.8504 9.62332L7.32302 10.1507C6.88046 10.5816 6.60843 11.1578 6.557 11.7734C6.50557 12.3889 6.6782 13.0023 7.04312 13.5006C7.25962 13.7834 7.53407 14.0167 7.84806 14.1849C8.16206 14.353 8.50836 14.4521 8.86377 14.4756C9.21919 14.499 9.5755 14.4462 9.90886 14.3208C10.2422 14.1953 10.5449 14.0001 10.7967 13.7481L11.3859 13.1589C11.4641 13.0807 11.508 12.9747 11.508 12.8642C11.508 12.7537 11.4641 12.6477 11.3859 12.5696C11.3078 12.4915 11.2018 12.4476 11.0913 12.4476C10.9808 12.4476 10.8748 12.4915 10.7967 12.5696ZM13.519 7.04238C13.0161 6.67119 12.3949 6.49631 11.7722 6.55055C11.1495 6.6048 10.5679 6.88444 10.1367 7.33701L9.69182 7.78189C9.45317 8.02054 9.45612 8.28276 9.61817 8.44481C9.69631 8.52295 9.80229 8.56684 9.91279 8.56684C10.0233 8.56684 10.1293 8.52295 10.2074 8.44481L10.7348 7.91742C11.0295 7.60657 11.4295 7.41679 11.8567 7.38519C12.2839 7.35359 12.7075 7.48243 13.0447 7.74654C13.2236 7.89501 13.3694 8.07926 13.4729 8.28745C13.5763 8.49564 13.635 8.72317 13.6453 8.95541C13.6556 9.18766 13.6171 9.41948 13.5325 9.63599C13.4478 9.8525 13.3188 10.0489 13.1537 10.2126L12.5644 10.8018C12.4863 10.88 12.4424 10.9859 12.4424 11.0965C12.4424 11.207 12.4863 11.3129 12.5644 11.3911C12.6426 11.4692 12.7486 11.5131 12.8591 11.5131C12.9696 11.5131 13.0756 11.4692 13.1537 11.3911L13.743 10.8018C13.9972 10.5516 14.195 10.2499 14.323 9.91688C14.451 9.58388 14.5063 9.22735 14.4851 8.87123C14.4639 8.51512 14.3667 8.16766 14.2001 7.85222C14.0334 7.53677 13.8012 7.26064 13.519 7.04238Z" fill="#D6D6D6"/>
</g>
<defs>
<clipPath id="clip0_2368_33077">
<rect width="10" height="10" fill="white" transform="translate(5.5 5.5)"/>
</clipPath>
</defs>
</svg>
