<svg width="14" height="14" viewBox="0 0 14 14" fill="none" xmlns="http://www.w3.org/2000/svg">
<path d="M12.3926 2.15989C12.0674 1.83473 11.6814 1.57683 11.2565 1.40093C10.8316 1.22504 10.3762 1.13459 9.9164 1.13477C9.45655 1.13494 9.00125 1.22573 8.5765 1.40194C8.15176 1.57816 7.7659 1.83634 7.44099 2.16175L7.01686 2.59104L6.59625 2.16268L6.59352 2.15994C6.26851 1.83493 5.88268 1.57712 5.45804 1.40123C5.03339 1.22534 4.57827 1.13481 4.11864 1.13481C3.65901 1.13481 3.20388 1.22534 2.77924 1.40123C2.3546 1.57712 1.96876 1.83493 1.64375 2.15994L1.45481 2.34889C0.798435 3.00526 0.429687 3.8955 0.429688 4.82376C0.429687 5.75201 0.798435 6.64225 1.45481 7.29863L6.44157 12.2853L7.00471 12.8754L7.01814 12.8619L7.03272 12.8765L7.56034 12.3198L12.5815 7.29854C13.2369 6.64165 13.605 5.7516 13.605 4.82368C13.605 3.89575 13.2369 3.0057 12.5815 2.34881L12.3926 2.15989ZM11.9627 6.67984L7.01814 11.6245L2.07349 6.67984C1.58121 6.18755 1.30465 5.51988 1.30465 4.82369C1.30465 4.1275 1.58121 3.45982 2.07349 2.96754L2.26246 2.77859C2.7545 2.28656 3.42178 2.01002 4.11762 2.00976C4.81347 2.0095 5.48095 2.28553 5.97336 2.7772L7.01497 3.83778L8.06152 2.77859C8.30528 2.53484 8.59466 2.34148 8.91314 2.20956C9.23162 2.07764 9.57297 2.00974 9.91769 2.00974C10.2624 2.00974 10.6038 2.07764 10.9222 2.20956C11.2407 2.34148 11.5301 2.53484 11.7738 2.77859L11.9628 2.96751C12.4543 3.4602 12.7304 4.12774 12.7303 4.8237C12.7303 5.51965 12.4543 6.18718 11.9627 6.67984Z" fill="white"/>
</svg>
