<svg width="29" height="29" viewBox="0 0 29 29" fill="none" xmlns="http://www.w3.org/2000/svg">
<path d="M16.6965 26.5837H12.2982C12.0226 26.5837 11.7552 26.4895 11.5405 26.3168C11.3258 26.1441 11.1766 25.9031 11.1176 25.6339L10.6258 23.3574C9.96976 23.0699 9.34768 22.7105 8.77103 22.2856L6.55132 22.9925C6.28858 23.0763 6.00509 23.0677 5.74792 22.9681C5.49075 22.8685 5.27538 22.684 5.13757 22.4451L2.93357 18.6377C2.7972 18.3986 2.74601 18.1203 2.78838 17.8483C2.83074 17.5764 2.96415 17.3268 3.16678 17.1405L4.88865 15.5697C4.81035 14.8581 4.81035 14.1401 4.88865 13.4285L3.16678 11.8613C2.96386 11.675 2.83027 11.4252 2.7879 11.153C2.74553 10.8808 2.79689 10.6022 2.93357 10.363L5.13273 6.55312C5.27055 6.31425 5.48592 6.12971 5.74309 6.03014C6.00026 5.93057 6.28375 5.92196 6.54648 6.00574L8.76619 6.71262C9.06103 6.49512 9.36794 6.29212 9.68453 6.10845C9.99023 5.93687 10.3044 5.78099 10.6258 5.64203L11.1188 3.36795C11.1775 3.09873 11.3264 2.85766 11.5409 2.6847C11.7554 2.51174 12.0226 2.41728 12.2982 2.41699H16.6965C16.972 2.41728 17.2392 2.51174 17.4537 2.6847C17.6682 2.85766 17.8171 3.09873 17.8758 3.36795L18.3737 5.64324C18.712 5.79308 19.0431 5.96103 19.3633 6.14833C19.6617 6.32112 19.9505 6.51083 20.2284 6.71503L22.4494 6.00816C22.7119 5.92468 22.9951 5.93345 23.2521 6.033C23.509 6.13256 23.7241 6.31692 23.8619 6.55553L26.0611 10.3654C26.3414 10.8572 26.2447 11.4795 25.8279 11.8625L24.106 13.4334C24.1843 14.1449 24.1843 14.863 24.106 15.5745L25.8279 17.1454C26.2447 17.5296 26.3414 18.1507 26.0611 18.6425L23.8619 22.4524C23.7241 22.6912 23.5087 22.8758 23.2515 22.9753C22.9944 23.0749 22.7109 23.0835 22.4482 22.9997L20.2284 22.2929C19.6522 22.7174 19.0305 23.0765 18.3749 23.3635L17.8758 25.6339C17.8169 25.9029 17.6678 26.1437 17.4534 26.3164C17.2389 26.4891 16.9719 26.5834 16.6965 26.5837ZM14.4925 9.66699C13.2106 9.66699 11.9812 10.1762 11.0748 11.0826C10.1684 11.9891 9.65915 13.2184 9.65915 14.5003C9.65915 15.7822 10.1684 17.0116 11.0748 17.918C11.9812 18.8244 13.2106 19.3337 14.4925 19.3337C15.7744 19.3337 17.0037 18.8244 17.9102 17.918C18.8166 17.0116 19.3258 15.7822 19.3258 14.5003C19.3258 13.2184 18.8166 11.9891 17.9102 11.0826C17.0037 10.1762 15.7744 9.66699 14.4925 9.66699Z" fill="#EAEAEA"/>
</svg>
