<svg width="44" height="44" viewBox="0 0 44 44" fill="none" xmlns="http://www.w3.org/2000/svg">
<path d="M40.6063 17.7031H29.6063C29.4172 17.7031 29.2625 17.8578 29.2625 18.0469V20.1094C29.2625 20.2984 29.4172 20.4531 29.6063 20.4531H40.6063C40.7953 20.4531 40.95 20.2984 40.95 20.1094V18.0469C40.95 17.8578 40.7953 17.7031 40.6063 17.7031ZM34.8484 23.5469H29.6063C29.4172 23.5469 29.2625 23.7016 29.2625 23.8906V25.9531C29.2625 26.1422 29.4172 26.2969 29.6063 26.2969H34.8484C35.0375 26.2969 35.1922 26.1422 35.1922 25.9531V23.8906C35.1922 23.7016 35.0375 23.5469 34.8484 23.5469ZM20.5098 13.8574H18.6492C18.3828 13.8574 18.168 14.0723 18.168 14.3387V24.9949C18.168 25.1496 18.241 25.2914 18.3656 25.3816L24.7637 30.048C24.9785 30.2027 25.2793 30.1598 25.434 29.9449L26.5383 28.4367V28.4324C26.693 28.2176 26.6457 27.9168 26.4309 27.7621L20.9867 23.8262V14.3387C20.991 14.0723 20.7719 13.8574 20.5098 13.8574Z" fill="white"/>
<path d="M34.5812 28.9566H32.0977C31.857 28.9566 31.6293 29.0812 31.5004 29.2874C30.9547 30.1511 30.3188 30.9503 29.5883 31.6808C28.3293 32.9398 26.8641 33.928 25.2356 34.6155C23.5469 35.3288 21.7551 35.6897 19.9074 35.6897C18.0555 35.6897 16.2637 35.3288 14.5793 34.6155C12.9508 33.928 11.4856 32.9398 10.2266 31.6808C8.9676 30.4218 7.97932 28.9566 7.29182 27.328C6.57854 25.6437 6.2176 23.8519 6.2176 21.9999C6.2176 20.148 6.57854 18.3605 7.29182 16.6718C7.97932 15.0433 8.9676 13.5781 10.2266 12.3191C11.4856 11.0601 12.9508 10.0718 14.5793 9.38431C16.2637 8.67103 18.0598 8.3101 19.9074 8.3101C21.7594 8.3101 23.5512 8.67103 25.2356 9.38431C26.8641 10.0718 28.3293 11.0601 29.5883 12.3191C30.3188 13.0495 30.9547 13.8488 31.5004 14.7124C31.6293 14.9187 31.857 15.0433 32.0977 15.0433H34.5812C34.8777 15.0433 35.0668 14.7339 34.9336 14.4718C32.132 8.89877 26.4516 5.27651 20.1094 5.20346C10.8238 5.08744 3.11097 12.6886 3.09378 21.9655C3.07659 31.2597 10.609 38.8007 19.9031 38.8007C26.327 38.8007 32.102 35.1655 34.9336 29.528C35.0668 29.2659 34.8734 28.9566 34.5812 28.9566Z" fill="white"/>
</svg>
