<svg width="15" height="9" viewBox="0 0 15 9" fill="none" xmlns="http://www.w3.org/2000/svg">
<path d="M7.00125 1.0007C6.7676 1.00024 6.54116 1.08162 6.36125 1.2307L0.361252 6.2307C0.157036 6.40044 0.0286112 6.64435 0.0042315 6.90878C-0.0201482 7.1732 0.0615137 7.43648 0.231252 7.6407C0.400991 7.84492 0.644902 7.97334 0.909329 7.99772C1.17375 8.0221 1.43704 7.94044 1.64125 7.7707L7.00125 3.2907L12.3613 7.6107C12.4635 7.69377 12.5812 7.7558 12.7076 7.79323C12.8339 7.83066 12.9664 7.84276 13.0974 7.82882C13.2285 7.81488 13.3554 7.77518 13.4711 7.71201C13.5867 7.64883 13.6887 7.56343 13.7713 7.4607C13.8628 7.35788 13.9322 7.23725 13.975 7.10638C14.0178 6.97551 14.0331 6.83721 14.0199 6.70014C14.0068 6.56308 13.9655 6.43021 13.8986 6.30985C13.8317 6.18949 13.7407 6.08425 13.6313 6.0007L7.63125 1.1707C7.44617 1.04519 7.22435 0.98533 7.00125 1.0007Z" fill="white"/>
</svg>
